<svg width="24" height="25" viewBox="0 0 24 25" fill="none" xmlns="http://www.w3.org/2000/svg">
<path d="M11.9 22.0808L16.45 10.0808H18.55L23.1 22.0808H21L19.925 19.0308H15.075L14 22.0808H11.9ZM4 19.0808L2.6 17.6808L7.65 12.6308C7.06667 12.0475 6.5375 11.3808 6.0625 10.6308C5.5875 9.88081 5.15 9.03081 4.75 8.08081H6.85C7.18333 8.73081 7.51667 9.29748 7.85 9.78081C8.18333 10.2641 8.58333 10.7475 9.05 11.2308C9.6 10.6808 10.1708 9.90998 10.7625 8.91831C11.3542 7.92664 11.8 6.98081 12.1 6.08081H1V4.08081H8V2.08081H10V4.08081H17V6.08081H14.1C13.75 7.28081 13.225 8.51414 12.525 9.78081C11.825 11.0475 11.1333 12.0141 10.45 12.6808L12.85 15.1308L12.1 17.1808L9.05 14.0558L4 19.0808ZM15.7 17.2808H19.3L17.5 12.1808L15.7 17.2808Z" fill="url(#paint0_linear_46_124)"/>
<defs>
<linearGradient id="paint0_linear_46_124" x1="12.05" y1="2.08081" x2="12.05" y2="22.0808" gradientUnits="userSpaceOnUse">
<stop stop-color="#F23005"/>
<stop offset="1" stop-color="#BF3E21"/>
</linearGradient>
</defs>
</svg>
