<svg width="358" height="40" viewBox="0 0 358 40" fill="none" xmlns="http://www.w3.org/2000/svg">
<path d="M9.384 5.8446C14.6 5.8446 18.776 7.0286 21.912 9.3966C25.08 11.7326 26.664 16.0366 26.664 22.3086C26.664 28.4846 25.128 32.8366 22.056 35.3646C18.984 37.8606 15 39.1086 10.104 39.1086H0.119995V5.8446H9.384ZM7.992 11.5566V33.3966H10.584C13.176 33.3966 15.144 32.5966 16.488 30.9966C17.832 29.3646 18.504 26.4686 18.504 22.3086C18.504 19.4606 18.168 17.2526 17.496 15.6846C16.824 14.1166 15.912 13.0446 14.76 12.4686C13.608 11.8606 12.184 11.5566 10.488 11.5566H7.992Z" fill="#141414"/>
<path d="M53.4656 25.8606C53.4656 26.9166 53.4176 27.8286 53.3216 28.5966H37.5296C37.7856 30.7406 38.3936 32.2446 39.3536 33.1086C40.3136 33.9726 41.6416 34.4046 43.3376 34.4046C44.3616 34.4046 45.3536 34.2286 46.3136 33.8766C47.2736 33.4926 48.3136 32.9166 49.4336 32.1486L52.5536 36.3726C49.5776 38.7406 46.2656 39.9246 42.6176 39.9246C38.4896 39.9246 35.3216 38.7086 33.1136 36.2766C30.9056 33.8446 29.8016 30.5806 29.8016 26.4846C29.8016 23.8926 30.2656 21.5726 31.1936 19.5246C32.1216 17.4446 33.4816 15.8126 35.2736 14.6286C37.0656 13.4126 39.2096 12.8046 41.7056 12.8046C45.3856 12.8046 48.2656 13.9566 50.3456 16.2606C52.4256 18.5646 53.4656 21.7646 53.4656 25.8606ZM46.0256 23.7006C45.9616 19.7966 44.5856 17.8446 41.8976 17.8446C40.5856 17.8446 39.5616 18.3246 38.8256 19.2846C38.1216 20.2446 37.6896 21.8286 37.5296 24.0366H46.0256V23.7006Z" fill="#141414"/>
<path d="M72.654 12.8046C74.862 12.8046 76.59 13.4766 77.838 14.8206C79.086 16.1646 79.71 18.0526 79.71 20.4846V39.1086H72.126V21.7806C72.126 20.5006 71.918 19.6206 71.502 19.1406C71.118 18.6286 70.526 18.3726 69.726 18.3726C68.19 18.3726 66.718 19.4766 65.31 21.6846V39.1086H57.726V13.6206H64.35L64.878 16.6446C65.966 15.3646 67.134 14.4046 68.382 13.7646C69.662 13.1246 71.086 12.8046 72.654 12.8046Z" fill="#141414"/>
<path d="M93.0131 13.6206V39.1086H85.4291V13.6206H93.0131ZM89.1731 0.180603C90.4851 0.180603 91.5571 0.596603 92.3891 1.4286C93.2531 2.2286 93.6851 3.2526 93.6851 4.5006C93.6851 5.7486 93.2531 6.7886 92.3891 7.6206C91.5571 8.4206 90.4851 8.8206 89.1731 8.8206C87.8611 8.8206 86.7891 8.4206 85.9571 7.6206C85.1251 6.7886 84.7091 5.7486 84.7091 4.5006C84.7091 3.2526 85.1251 2.2286 85.9571 1.4286C86.7891 0.596603 87.8611 0.180603 89.1731 0.180603Z" fill="#141414"/>
<path d="M107.952 12.8046C109.776 12.8046 111.488 13.0766 113.088 13.6206C114.688 14.1646 116.096 14.9326 117.312 15.9246L114.528 20.1966C112.448 18.8846 110.352 18.2286 108.24 18.2286C107.248 18.2286 106.48 18.4046 105.936 18.7566C105.424 19.0766 105.168 19.5406 105.168 20.1486C105.168 20.6286 105.28 21.0286 105.504 21.3486C105.76 21.6366 106.256 21.9406 106.992 22.2606C107.728 22.5806 108.864 22.9646 110.4 23.4126C113.056 24.1806 115.024 25.1886 116.304 26.4366C117.616 27.6526 118.272 29.3486 118.272 31.5246C118.272 33.2526 117.776 34.7566 116.784 36.0366C115.792 37.2846 114.432 38.2446 112.704 38.9166C110.976 39.5886 109.056 39.9246 106.944 39.9246C104.8 39.9246 102.8 39.5886 100.944 38.9166C99.12 38.2446 97.568 37.3166 96.288 36.1326L99.984 32.0046C102.128 33.6686 104.384 34.5006 106.752 34.5006C107.904 34.5006 108.8 34.2926 109.44 33.8766C110.112 33.4606 110.448 32.8686 110.448 32.1006C110.448 31.4926 110.32 31.0126 110.064 30.6606C109.808 30.3086 109.312 29.9886 108.576 29.7006C107.84 29.3806 106.672 28.9966 105.072 28.5486C102.544 27.8126 100.656 26.7886 99.408 25.4766C98.16 24.1646 97.536 22.5326 97.536 20.5806C97.536 19.1086 97.952 17.7966 98.784 16.6446C99.648 15.4606 100.864 14.5326 102.432 13.8606C104.032 13.1566 105.872 12.8046 107.952 12.8046Z" fill="#141414"/>
<path d="M130.827 12.8046C132.651 12.8046 134.363 13.0766 135.963 13.6206C137.563 14.1646 138.971 14.9326 140.187 15.9246L137.403 20.1966C135.323 18.8846 133.227 18.2286 131.115 18.2286C130.123 18.2286 129.355 18.4046 128.811 18.7566C128.299 19.0766 128.043 19.5406 128.043 20.1486C128.043 20.6286 128.155 21.0286 128.379 21.3486C128.635 21.6366 129.131 21.9406 129.867 22.2606C130.603 22.5806 131.739 22.9646 133.275 23.4126C135.931 24.1806 137.899 25.1886 139.179 26.4366C140.491 27.6526 141.147 29.3486 141.147 31.5246C141.147 33.2526 140.651 34.7566 139.659 36.0366C138.667 37.2846 137.307 38.2446 135.579 38.9166C133.851 39.5886 131.931 39.9246 129.819 39.9246C127.675 39.9246 125.675 39.5886 123.819 38.9166C121.995 38.2446 120.443 37.3166 119.163 36.1326L122.859 32.0046C125.003 33.6686 127.259 34.5006 129.627 34.5006C130.779 34.5006 131.675 34.2926 132.315 33.8766C132.987 33.4606 133.323 32.8686 133.323 32.1006C133.323 31.4926 133.195 31.0126 132.939 30.6606C132.683 30.3086 132.187 29.9886 131.451 29.7006C130.715 29.3806 129.547 28.9966 127.947 28.5486C125.419 27.8126 123.531 26.7886 122.283 25.4766C121.035 24.1646 120.411 22.5326 120.411 20.5806C120.411 19.1086 120.827 17.7966 121.659 16.6446C122.523 15.4606 123.739 14.5326 125.307 13.8606C126.907 13.1566 128.747 12.8046 130.827 12.8046Z" fill="#141414"/>
<path d="M156.094 12.8046C159.998 12.8046 163.054 14.0046 165.262 16.4046C167.47 18.7726 168.574 22.1006 168.574 26.3886C168.574 29.1086 168.062 31.4926 167.038 33.5406C166.046 35.5566 164.606 37.1246 162.718 38.2446C160.862 39.3646 158.654 39.9246 156.094 39.9246C152.222 39.9246 149.166 38.7406 146.926 36.3726C144.718 33.9726 143.614 30.6286 143.614 26.3406C143.614 23.6206 144.11 21.2526 145.102 19.2366C146.126 17.1886 147.566 15.6046 149.422 14.4846C151.31 13.3646 153.534 12.8046 156.094 12.8046ZM156.094 18.3726C154.558 18.3726 153.406 19.0286 152.638 20.3406C151.87 21.6206 151.486 23.6206 151.486 26.3406C151.486 29.1246 151.854 31.1566 152.59 32.4366C153.358 33.7166 154.526 34.3566 156.094 34.3566C157.63 34.3566 158.782 33.7166 159.55 32.4366C160.318 31.1246 160.702 29.1086 160.702 26.3886C160.702 23.6046 160.318 21.5726 159.55 20.2926C158.814 19.0126 157.662 18.3726 156.094 18.3726Z" fill="#141414"/>
<path d="M188.013 12.8046C190.221 12.8046 191.949 13.4766 193.197 14.8206C194.445 16.1646 195.069 18.0526 195.069 20.4846V39.1086H187.485V21.7806C187.485 20.5006 187.277 19.6206 186.861 19.1406C186.477 18.6286 185.885 18.3726 185.085 18.3726C183.549 18.3726 182.077 19.4766 180.669 21.6846V39.1086H173.085V13.6206H179.709L180.237 16.6446C181.325 15.3646 182.493 14.4046 183.741 13.7646C185.021 13.1246 186.445 12.8046 188.013 12.8046Z" fill="#141414"/>
<path d="M226.723 5.0286C231.011 5.0286 234.707 6.3886 237.811 9.10861L233.827 13.2846C232.643 12.3886 231.539 11.7486 230.515 11.3646C229.523 10.9486 228.371 10.7406 227.059 10.7406C224.595 10.7406 222.627 11.7166 221.155 13.6686C219.683 15.5886 218.947 18.5166 218.947 22.4526C218.947 26.7086 219.507 29.7326 220.627 31.5246C221.747 33.2846 223.491 34.1646 225.859 34.1646C227.523 34.1646 229.027 33.7966 230.371 33.0606V25.5246H226.051L225.283 19.9566H238.003V36.4206C236.275 37.5406 234.371 38.4046 232.291 39.0126C230.211 39.6206 228.131 39.9246 226.051 39.9246C220.995 39.9246 217.187 38.4526 214.627 35.5086C212.067 32.5326 210.787 28.1806 210.787 22.4526C210.787 18.8046 211.475 15.6686 212.851 13.0446C214.259 10.4206 216.163 8.4366 218.563 7.0926C220.995 5.7166 223.715 5.0286 226.723 5.0286Z" fill="#141414"/>
<path d="M254.157 12.8046C258.061 12.8046 261.117 14.0046 263.325 16.4046C265.533 18.7726 266.637 22.1006 266.637 26.3886C266.637 29.1086 266.125 31.4926 265.101 33.5406C264.109 35.5566 262.669 37.1246 260.781 38.2446C258.925 39.3646 256.717 39.9246 254.157 39.9246C250.285 39.9246 247.229 38.7406 244.989 36.3726C242.781 33.9726 241.677 30.6286 241.677 26.3406C241.677 23.6206 242.173 21.2526 243.165 19.2366C244.189 17.1886 245.629 15.6046 247.485 14.4846C249.373 13.3646 251.597 12.8046 254.157 12.8046ZM254.157 18.3726C252.621 18.3726 251.469 19.0286 250.701 20.3406C249.933 21.6206 249.549 23.6206 249.549 26.3406C249.549 29.1246 249.917 31.1566 250.653 32.4366C251.421 33.7166 252.589 34.3566 254.157 34.3566C255.693 34.3566 256.845 33.7166 257.613 32.4366C258.381 31.1246 258.765 29.1086 258.765 26.3886C258.765 23.6046 258.381 21.5726 257.613 20.2926C256.877 19.0126 255.725 18.3726 254.157 18.3726Z" fill="#141414"/>
<path d="M299.324 12.8046C301.34 12.8046 302.956 13.4926 304.172 14.8686C305.388 16.2126 305.996 18.0846 305.996 20.4846V39.1086H298.412V21.7806C298.412 19.5086 297.692 18.3726 296.252 18.3726C295.452 18.3726 294.748 18.6446 294.14 19.1886C293.532 19.7326 292.94 20.5646 292.364 21.6846V39.1086H284.78V21.7806C284.78 19.5086 284.06 18.3726 282.62 18.3726C281.852 18.3726 281.148 18.6606 280.508 19.2366C279.9 19.7806 279.308 20.5966 278.732 21.6846V39.1086H271.148V13.6206H277.772L278.3 16.5966C279.292 15.3166 280.38 14.3726 281.564 13.7646C282.78 13.1246 284.156 12.8046 285.692 12.8046C287.132 12.8046 288.364 13.1566 289.388 13.8606C290.444 14.5646 291.212 15.5566 291.692 16.8366C292.716 15.4606 293.836 14.4526 295.052 13.8126C296.3 13.1406 297.724 12.8046 299.324 12.8046Z" fill="#141414"/>
<path d="M333.919 25.8606C333.919 26.9166 333.871 27.8286 333.775 28.5966H317.983C318.239 30.7406 318.847 32.2446 319.807 33.1086C320.767 33.9726 322.095 34.4046 323.791 34.4046C324.815 34.4046 325.807 34.2286 326.767 33.8766C327.727 33.4926 328.767 32.9166 329.887 32.1486L333.007 36.3726C330.031 38.7406 326.719 39.9246 323.071 39.9246C318.943 39.9246 315.775 38.7086 313.567 36.2766C311.359 33.8446 310.255 30.5806 310.255 26.4846C310.255 23.8926 310.719 21.5726 311.647 19.5246C312.575 17.4446 313.935 15.8126 315.727 14.6286C317.519 13.4126 319.663 12.8046 322.159 12.8046C325.839 12.8046 328.719 13.9566 330.799 16.2606C332.879 18.5646 333.919 21.7646 333.919 25.8606ZM326.479 23.7006C326.415 19.7966 325.039 17.8446 322.351 17.8446C321.039 17.8446 320.015 18.3246 319.279 19.2846C318.575 20.2446 318.143 21.8286 317.983 24.0366H326.479V23.7006Z" fill="#141414"/>
<path d="M347.155 12.8046C348.979 12.8046 350.691 13.0766 352.291 13.6206C353.891 14.1646 355.299 14.9326 356.515 15.9246L353.731 20.1966C351.651 18.8846 349.555 18.2286 347.443 18.2286C346.451 18.2286 345.683 18.4046 345.139 18.7566C344.627 19.0766 344.371 19.5406 344.371 20.1486C344.371 20.6286 344.483 21.0286 344.707 21.3486C344.963 21.6366 345.459 21.9406 346.195 22.2606C346.931 22.5806 348.067 22.9646 349.603 23.4126C352.259 24.1806 354.227 25.1886 355.507 26.4366C356.819 27.6526 357.475 29.3486 357.475 31.5246C357.475 33.2526 356.979 34.7566 355.987 36.0366C354.995 37.2846 353.635 38.2446 351.907 38.9166C350.179 39.5886 348.259 39.9246 346.147 39.9246C344.003 39.9246 342.003 39.5886 340.147 38.9166C338.323 38.2446 336.771 37.3166 335.491 36.1326L339.187 32.0046C341.331 33.6686 343.587 34.5006 345.955 34.5006C347.107 34.5006 348.003 34.2926 348.643 33.8766C349.315 33.4606 349.651 32.8686 349.651 32.1006C349.651 31.4926 349.523 31.0126 349.267 30.6606C349.011 30.3086 348.515 29.9886 347.779 29.7006C347.043 29.3806 345.875 28.9966 344.275 28.5486C341.747 27.8126 339.859 26.7886 338.611 25.4766C337.363 24.1646 336.739 22.5326 336.739 20.5806C336.739 19.1086 337.155 17.7966 337.987 16.6446C338.851 15.4606 340.067 14.5326 341.635 13.8606C343.235 13.1566 345.075 12.8046 347.155 12.8046Z" fill="#141414"/>
</svg>
