<svg width="24" height="25" viewBox="0 0 24 25" fill="none" xmlns="http://www.w3.org/2000/svg">
<path d="M14 10.7779V9.07793C14.55 8.8446 15.1125 8.6696 15.6875 8.55293C16.2625 8.43626 16.8667 8.37793 17.5 8.37793C17.9333 8.37793 18.3583 8.41126 18.775 8.47793C19.1917 8.5446 19.6 8.62793 20 8.72793V10.3279C19.6 10.1779 19.1958 10.0654 18.7875 9.99043C18.3792 9.91543 17.95 9.87793 17.5 9.87793C16.8667 9.87793 16.2583 9.9571 15.675 10.1154C15.0917 10.2738 14.5333 10.4946 14 10.7779ZM14 16.2779V14.5779C14.55 14.3446 15.1125 14.1696 15.6875 14.0529C16.2625 13.9363 16.8667 13.8779 17.5 13.8779C17.9333 13.8779 18.3583 13.9113 18.775 13.9779C19.1917 14.0446 19.6 14.1279 20 14.2279V15.8279C19.6 15.6779 19.1958 15.5654 18.7875 15.4904C18.3792 15.4154 17.95 15.3779 17.5 15.3779C16.8667 15.3779 16.2583 15.4529 15.675 15.6029C15.0917 15.7529 14.5333 15.9779 14 16.2779ZM14 13.5279V11.8279C14.55 11.5946 15.1125 11.4196 15.6875 11.3029C16.2625 11.1863 16.8667 11.1279 17.5 11.1279C17.9333 11.1279 18.3583 11.1613 18.775 11.2279C19.1917 11.2946 19.6 11.3779 20 11.4779V13.0779C19.6 12.9279 19.1958 12.8154 18.7875 12.7404C18.3792 12.6654 17.95 12.6279 17.5 12.6279C16.8667 12.6279 16.2583 12.7071 15.675 12.8654C15.0917 13.0238 14.5333 13.2446 14 13.5279ZM6.5 16.8779C7.28333 16.8779 8.04583 16.9654 8.7875 17.1404C9.52917 17.3154 10.2667 17.5779 11 17.9279V8.07793C10.3167 7.67793 9.59167 7.37793 8.825 7.17793C8.05833 6.97793 7.28333 6.87793 6.5 6.87793C5.9 6.87793 5.30417 6.93626 4.7125 7.05293C4.12083 7.1696 3.55 7.3446 3 7.57793V17.4779C3.58333 17.2779 4.1625 17.1279 4.7375 17.0279C5.3125 16.9279 5.9 16.8779 6.5 16.8779ZM13 17.9279C13.7333 17.5779 14.4708 17.3154 15.2125 17.1404C15.9542 16.9654 16.7167 16.8779 17.5 16.8779C18.1 16.8779 18.6875 16.9279 19.2625 17.0279C19.8375 17.1279 20.4167 17.2779 21 17.4779V7.57793C20.45 7.3446 19.8792 7.1696 19.2875 7.05293C18.6958 6.93626 18.1 6.87793 17.5 6.87793C16.7167 6.87793 15.9417 6.97793 15.175 7.17793C14.4083 7.37793 13.6833 7.67793 13 8.07793V17.9279ZM12 20.8779C11.2 20.2446 10.3333 19.7529 9.4 19.4029C8.46667 19.0529 7.5 18.8779 6.5 18.8779C5.8 18.8779 5.1125 18.9696 4.4375 19.1529C3.7625 19.3363 3.11667 19.5946 2.5 19.9279C2.15 20.1113 1.8125 20.1029 1.4875 19.9029C1.1625 19.7029 1 19.4113 1 19.0279V6.97793C1 6.7946 1.04583 6.6196 1.1375 6.45293C1.22917 6.28626 1.36667 6.16126 1.55 6.07793C2.31667 5.67793 3.11667 5.37793 3.95 5.17793C4.78333 4.97793 5.63333 4.87793 6.5 4.87793C7.46667 4.87793 8.4125 5.00293 9.3375 5.25293C10.2625 5.50293 11.15 5.87793 12 6.37793C12.85 5.87793 13.7375 5.50293 14.6625 5.25293C15.5875 5.00293 16.5333 4.87793 17.5 4.87793C18.3667 4.87793 19.2167 4.97793 20.05 5.17793C20.8833 5.37793 21.6833 5.67793 22.45 6.07793C22.6333 6.16126 22.7708 6.28626 22.8625 6.45293C22.9542 6.6196 23 6.7946 23 6.97793V19.0279C23 19.4113 22.8375 19.7029 22.5125 19.9029C22.1875 20.1029 21.85 20.1113 21.5 19.9279C20.8833 19.5946 20.2375 19.3363 19.5625 19.1529C18.8875 18.9696 18.2 18.8779 17.5 18.8779C16.5 18.8779 15.5333 19.0529 14.6 19.4029C13.6667 19.7529 12.8 20.2446 12 20.8779Z" fill="url(#paint0_linear_46_126)"/>
<defs>
<linearGradient id="paint0_linear_46_126" x1="12" y1="4.87793" x2="12" y2="20.8779" gradientUnits="userSpaceOnUse">
<stop stop-color="#F23005"/>
<stop offset="1" stop-color="#BF3E21"/>
</linearGradient>
</defs>
</svg>
